<?xml version="1.0" encoding="utf-8"?>
<!-- Generator: Adobe Illustrator 23.0.6, SVG Export Plug-In . SVG Version: 6.00 Build 0)  -->
<svg version="1.1" id="Layer_1" xmlns="http://www.w3.org/2000/svg" xmlns:xlink="http://www.w3.org/1999/xlink" x="0px" y="0px"
	 width="320px" height="77.7px" viewBox="0 0 320 77.7" style="enable-background:new 0 0 320 77.7;" xml:space="preserve">
<style type="text/css">
	.st0{fill:#FFFFFF;}
</style>
<g>
	<g>
		<path class="st0" d="M30.8,22.3c-2.9-4-7-6.1-12.4-6.1c-5.7,0-10.2,2-13.4,6c-3.3,4-5,9.4-5,16.1c0,6.8,1.7,12.2,5,16.1
			c3.3,4,7.8,6,13.4,6s9.9-2.2,12.7-6.5v5.5h12.5V1.2H30.8V22.3z M22,50.2c-6,0-9-3.9-9-11.6c0-3.9,0.8-7,2.4-9.1s3.8-3.2,6.6-3.2
			c6.1,0,9.1,4,9.1,11.9C31.1,46.3,28,50.2,22,50.2z M67.8,16.2c-6.6,0-11.9,2-15.8,6.1c-4,4-6,9.3-6,16.1c0,6.7,2,12,6.1,16.1
			c4,4,9.3,6.1,15.9,6.1c5.2,0,9.6-1.3,13.4-3.8c3.7-2.5,6.2-6,7.3-10.4H76.5c-1.5,3.2-4.4,4.8-8.5,4.8c-2.6,0-4.8-0.8-6.5-2.3
			s-2.8-3.7-3.2-6.6h31.3v-2.5c0-7.1-2-12.8-5.9-17C79.7,18.3,74.4,16.2,67.8,16.2z M58.4,34c0.9-5.6,4-8.4,9.3-8.4
			c2.6,0,4.7,0.7,6.3,2.2c1.6,1.5,2.7,3.5,3.1,6.1L58.4,34L58.4,34z M126.9,38.3c-2.4-2.1-6.2-3.6-11.2-4.3l-6.3-0.9
			c-2.1-0.3-3.7-0.8-4.7-1.5s-1.5-1.6-1.5-2.8c0-2.7,2.2-4,6.5-4c5.1,0,7.7,2,7.8,6h11.9c-0.5-9.7-7.1-14.5-19.7-14.5
			c-6.1,0-10.8,1.2-14.1,3.5c-3.3,2.3-4.9,5.6-4.9,9.9c0,7.2,4.8,11.5,14.3,12.9l5.5,0.9c2.8,0.4,4.7,1,5.7,1.7s1.6,1.7,1.6,3
			c0,2.7-2.4,4.1-7.1,4.1c-2.7,0-4.7-0.5-5.9-1.4c-1.2-0.9-2-2.5-2.2-4.8H90c0.4,5.1,2.2,8.9,5.5,11.2s8.2,3.5,14.9,3.5
			c6.4,0,11.4-1.2,14.9-3.6c3.5-2.4,5.3-5.7,5.3-10.1C130.5,43.3,129.3,40.4,126.9,38.3z M144.4,1.6h-12.2v10.8h12.2V1.6z
			 M131.9,59.5h12.8V17.2h-12.8V59.5z M178.3,22.8c-2.8-4.4-7-6.6-12.7-6.6c-5.5,0-10,1.9-13.4,5.8c-3.4,4-5.1,9.1-5.1,15.3
			c0,6.3,1.7,11.4,5.2,15.3c3.4,3.9,8,5.9,13.5,5.9c5.4,0,9.5-2,12.1-6v6.1c0,2.6-0.7,4.7-2.2,6.1c-1.5,1.4-3.6,2.2-6.4,2.2
			c-5.1,0-7.8-2-8.1-5.9h-12.6c0.3,4.8,2.2,8.6,5.7,11.4c3.6,2.8,8.5,4.1,14.8,4.1c6.8,0,12.2-1.6,16-4.9s5.7-7.7,5.7-13.5v-41
			h-12.5V22.8z M175.8,45.5c-1.6,1.9-3.8,2.8-6.7,2.8c-2.8,0-5.1-0.9-6.6-2.8c-1.6-1.9-2.4-4.5-2.4-8s0.8-6.2,2.4-8.2
			c1.6-1.9,3.8-2.9,6.6-2.9c3,0,5.2,0.9,6.8,2.8s2.3,4.6,2.3,8.1C178.2,40.9,177.4,43.6,175.8,45.5z M220.6,16.2
			c-5.6,0-10,2.3-13.3,7v-6h-12.5v42.3h12.8V35.9c0-2.8,0.8-4.9,2.3-6.5c1.5-1.5,3.4-2.3,5.7-2.3c4.5,0,6.8,2.4,6.8,7.2v25.2h12.8
			V31.8c0-5-1.3-8.8-4-11.5C228.7,17.6,225.1,16.2,220.6,16.2z M259.5,16.2c-6.6,0-11.9,2-15.8,6.1c-4,4-6,9.3-6,16.1
			c0,6.7,2,12,6.1,16.1c4,4,9.3,6.1,15.9,6.1c5.2,0,9.6-1.3,13.4-3.8c3.7-2.5,6.2-6,7.3-10.4h-12.1c-1.5,3.2-4.4,4.8-8.5,4.8
			c-2.6,0-4.8-0.8-6.5-2.3s-2.8-3.7-3.2-6.6h31.3v-2.5c0-7.1-2-12.8-5.9-17C271.3,18.3,266,16.2,259.5,16.2z M250,34
			c0.9-5.6,4-8.4,9.3-8.4c2.6,0,4.7,0.7,6.3,2.2c1.6,1.5,2.7,3.5,3.1,6.1L250,34L250,34z M311.3,28.4V16.7c-1.6-0.1-2.6-0.2-2.8-0.2
			c-6.1,0-10.1,2.8-12.1,8.5v-7.9H284v42.3h12.8V39.8c0-7.6,3.7-11.5,11.2-11.5h3.3V28.4z M305.6,45.4v14.1H320V45.4H305.6z"/>
	</g>
</g>
</svg>
